Coordinates
version=1
nRows=12
nColumns=42
inDegrees=yes

Units are S.I. units (second, meters, Newtons, ...)
If the header above contains a line with 'inDegrees', this indicates whether rotational values are in degrees (yes) or radians (no).

endheader
time	pelvis_tilt	pelvis_list	pelvis_rotation	pelvis_tx	pelvis_ty	pelvis_tz	hip_flexion_r	hip_adduction_r	hip_rotation_r	knee_angle_r	knee_adduction_r	knee_angle_r_beta	ankle_angle_r	subtalar_angle_r	mtp_angle_r	hip_flexion_l	hip_adduction_l	hip_rotation_l	knee_angle_l	knee_adduction_l	knee_angle_l_beta	ankle_angle_l	subtalar_angle_l	mtp_angle_l	lumbar_extension	lumbar_bending	lumbar_rotation	arm_flex_r	arm_add_r	arm_rot_r	elbow_flex_r	pro_sup_r	wrist_flex_r	wrist_dev_r	arm_flex_l	arm_add_l	arm_rot_l	elbow_flex_l	pro_sup_l	wrist_flex_l	wrist_dev_l
      8.50000000	      7.47423245	     -1.17702458	     -3.95999315	      0.97749191	      0.93866812	     -0.14642438	     10.70954410	     -8.98474472	    -25.19814587	     27.28949601	      5.21808462	      0.47629156	      6.27132719	     15.47875074	     -7.50022552	     -4.96916088	     -1.11861648	    -18.77026398	     25.15572476	      2.94915938	      0.43905022	     20.55197968	     -0.73715299	     -7.50022552	    -18.05872805	     -1.54483419	     -2.41168650	      5.67158591	     -7.90226771	      1.74705068	     38.03625946	     90.00000001	      0.00000000	      0.00000000	    -11.47015935	    -12.31558468	     -0.04942009	     48.87134798	     90.00000001	      0.00000000	      0.00000000
      8.51000000	      7.41148103	     -0.94738283	     -3.70763908	      0.98065482	      0.93800131	     -0.14583405	     10.75702304	     -9.06665556	    -24.87330124	     27.60219876	      5.13246933	      0.48174925	      6.71496518	     14.49102837	     -7.50022128	     -5.07622121	     -0.89371793	    -18.53150817	     25.11903862	      2.87296454	      0.43840993	     20.75019374	     -0.56769503	     -7.50022128	    -17.88086579	     -1.62363269	     -2.48833116	      5.55403913	     -7.85740578	      1.35595532	     37.74426291	     90.00000001	      0.00000000	      0.00000000	    -11.25654320	    -12.36822977	      0.16221691	     48.79504148	     90.00000001	      0.00000000	      0.00000000
      8.52000000	      7.43726740	     -0.79502669	     -3.47228197	      0.98383152	      0.93752806	     -0.14517630	     10.70264101	     -9.01110551	    -24.68091792	     27.84858706	      4.84507210	      0.48604954	      7.10986635	     13.92372720	     -7.50021905	     -5.27999442	     -0.74418716	    -18.34958128	     25.11140676	      2.75393173	      0.43827673	     20.88410988	     -0.53119786	     -7.50021905	    -17.81648073	     -1.61792877	     -2.54353806	      5.45219214	     -7.87393690	      1.18687249	     37.54481939	     90.00000001	      0.00000000	      0.00000000	    -11.04617587	    -12.35221226	      0.22203667	     48.72082029	     90.00000001	      0.00000000	      0.00000000
      8.53000000	      7.41445678	     -0.68208794	     -3.23658143	      0.98719679	      0.93703984	     -0.14451383	     10.61466629	     -8.97403447	    -24.50889699	     27.97239515	      4.69194025	      0.48821040	      7.18208576	     13.84732433	     -7.50021877	     -5.44719170	     -0.69895566	    -18.29150719	     25.14055741	      2.70280453	      0.43878550	     20.90768961	     -0.52007908	     -7.50021877	    -17.68139937	     -1.56497005	     -2.60559295	      5.28464228	     -7.94591937	      1.15189805	     37.43169385	     90.00000001	      0.00000000	      0.00000000	    -10.91693092	    -12.30974081	      0.23007469	     48.75416701	     90.00000001	      0.00000000	      0.00000000
      8.54000000	      7.46111121	     -0.53960142	     -3.00554627	      0.99038492	      0.93664379	     -0.14382788	     10.64409956	     -8.94758773	    -24.33793250	     28.49243797	      4.34093551	      0.49728685	      8.07901588	     12.94412140	     -7.50021664	     -5.74704262	     -0.51193368	    -17.89479847	     24.97726920	      2.60681681	      0.43593559	     21.17119781	     -0.41684048	     -7.50021664	    -17.64792235	     -1.54107539	     -2.65755873	      5.26501359	     -7.95304256	      0.93542760	     37.14468149	     90.00000001	      0.00000000	      0.00000000	    -10.63774328	    -12.26654077	      0.27323916	     48.54988652	     90.00000001	      0.00000000	      0.00000000
      8.55000000	      7.44125334	     -0.45345808	     -2.77509651	      0.99370969	      0.93624266	     -0.14313239	     10.58771745	     -8.90611604	    -24.10878665	     28.69991134	      4.19415552	      0.50090795	      8.21807491	     12.78987490	     -7.50021616	     -5.93132884	     -0.46806314	    -17.77884284	     24.97266632	      2.51874512	      0.43585525	     21.20739534	     -0.39488350	     -7.50021616	    -17.53903928	     -1.45719907	     -2.70893816	      5.14601165	     -8.03204620	      0.86748950	     37.01829864	     90.00000001	      0.00000000	      0.00000000	    -10.49548882	    -12.20430897	      0.28287224	     48.57099830	     90.00000001	      0.00000000	      0.00000000
      8.56000000	      7.39410701	     -0.26827725	     -2.62893863	      0.99694135	      0.93577596	     -0.14224665	     10.74947886	     -8.99129890	    -23.74318546	     29.31438115	      4.04493700	      0.51163247	      9.08305888	     11.70541935	     -7.50021320	     -6.19170383	     -0.25918403	    -17.40860640	     24.70001818	      2.50865903	      0.43109664	     21.43577666	     -0.31067996	     -7.50021320	    -17.39958912	     -1.50850378	     -2.72997536	      5.16864421	     -8.01296547	      0.51422854	     36.69550671	     90.00000001	      0.00000000	      0.00000000	    -10.28510581	    -12.14690226	      0.26488444	     48.38349160	     90.00000001	      0.00000000	      0.00000000
      8.57000000	      7.33644906	     -0.18712415	     -2.42312266	      1.00034193	      0.93539309	     -0.14145553	     10.68147709	     -8.97608789	    -23.57263596	     29.43648275	      3.93985309	      0.51376354	      9.11469780	     11.66343379	     -7.50021300	     -6.35426839	     -0.25719805	    -17.38763925	     24.70674752	      2.46438530	      0.43121409	     21.44426426	     -0.31190522	     -7.50021300	    -17.24473476	     -1.42645686	     -2.79405398	      5.06724445	     -8.06708333	      0.48170721	     36.62260232	     90.00000001	      0.00000000	      0.00000000	    -10.18741845	    -12.07146346	      0.27727459	     48.42679874	     90.00000001	      0.00000000	      0.00000000
      8.58000000	      7.32036251	     -0.11224756	     -2.30577399	      1.00359350	      0.93501803	     -0.14050999	     10.81833700	     -8.95820991	    -23.25921906	     30.11143234	      3.77304956	      0.52554364	      9.90624163	     10.78835674	     -7.50021067	     -6.68939033	     -0.17923087	    -17.12433672	     24.40120699	      2.44834102	      0.42588140	     21.64393700	     -0.21798443	     -7.50021067	    -17.15776135	     -1.35225709	     -2.77341763	      5.12469521	     -8.08263874	      0.19046374	     36.32750194	     90.00000001	      0.00000000	      0.00000000	    -10.00448815	    -11.96320163	      0.22053137	     48.30856961	     90.00000001	      0.00000000	      0.00000000
      8.59000000	      7.23682773	     -0.03185543	     -2.17734647	      1.00683519	      0.93467391	     -0.13946184	     10.77011540	     -8.95610837	    -23.15954401	     30.18738173	      3.71586604	      0.52686920	      9.92355393	     10.76828503	     -7.50021056	     -6.82350423	     -0.19251511	    -17.11691857	     24.40555103	      2.41781374	      0.42595722	     21.64758119	     -0.21663396	     -7.50021056	    -17.00273788	     -1.29607592	     -2.81376973	      5.11472409	     -8.13123768	      0.16704983	     36.30294511	     90.00000001	      0.00000000	      0.00000000	     -9.92283508	    -11.92339707	      0.22467657	     48.34706595	     90.00000001	      0.00000000	      0.00000000
      8.60000000	      7.17632594	      0.01926421	     -2.06613984	      1.01010067	      0.93425495	     -0.13853157	     10.94999061	     -8.95435456	    -22.83786415	     30.92230005	      3.61584044	      0.53969595	     10.69315046	      9.99797494	     -7.50020801	     -7.15026558	     -0.15544009	    -16.93503884	     24.02213448	      2.42529712	      0.41926534	     21.83883953	     -0.03795850	     -7.50020801	    -16.87791730	     -1.18684509	     -2.81754812	      5.17750493	     -8.15061986	     -0.17580424	     35.97815286	     90.00000001	      0.00000000	      0.00000000	     -9.78328844	    -11.78347662	      0.12668887	     48.30580128	     90.00000001	      0.00000000	      0.00000000
      8.61000000	      7.07571499	      0.01469241	     -1.94914524	      1.01332589	      0.93388507	     -0.13754975	     10.98433607	     -8.91856090	    -22.71419281	     31.25337627	      3.63104657	      0.54547432	     10.91361628	      9.78643458	     -7.50020689	     -7.33273796	     -0.21652558	    -16.92167740	     23.86851752	      2.35564096	      0.41658422	     21.88876861	      0.01740584	     -7.50020689	    -16.72268674	     -1.02217580	     -2.83476633	      5.23495975	     -8.21500041	     -0.32436493	     35.86751426	     90.00000001	      0.00000000	      0.00000000	     -9.73289750	    -11.67460081	      0.10883332	     48.34434752	     90.00000001	      0.00000000	      0.00000000
